<?xml version="1.0" standalone="no"?>
<!DOCTYPE svg PUBLIC "-//W3C//DTD SVG 20010904//EN"
 "http://www.w3.org/TR/2001/REC-SVG-20010904/DTD/svg10.dtd">
<svg version="1.0" xmlns="http://www.w3.org/2000/svg"
 width="1200.000000pt" height="867.000000pt" viewBox="0 0 1200.000000 867.000000"
 preserveAspectRatio="xMidYMid meet">

<g transform="translate(0.000000,867.000000) scale(0.100000,-0.100000)"
fill="#000000" stroke="none">
<path d="M6830 8009 c-14 -5 -97 -82 -185 -169 l-160 -159 -43 19 c-257 116
-592 142 -877 68 -435 -114 -793 -449 -934 -874 -67 -203 -64 -153 -68 -1096
l-4 -858 -159 0 c-165 0 -233 9 -310 42 -108 46 -215 159 -262 276 -22 56 -23
69 -29 522 -6 433 -7 471 -28 549 -88 341 -361 605 -702 676 -90 19 -278 19
-367 0 -38 -8 -100 -26 -138 -40 l-68 -26 -141 140 c-77 76 -150 144 -162 150
-12 6 -43 11 -70 11 -114 0 -188 -121 -137 -223 9 -18 68 -85 132 -149 l116
-118 -34 -37 c-19 -21 -36 -40 -38 -42 -1 -3 -57 50 -125 116 -67 66 -133 126
-146 133 -39 20 -115 15 -157 -10 -59 -37 -88 -121 -64 -187 6 -15 84 -101
173 -190 l161 -162 -14 -58 c-19 -77 -27 -1279 -10 -1448 77 -762 602 -1416
1330 -1655 254 -84 399 -100 886 -100 l364 0 0 -280 0 -280 -178 0 c-167 0
-182 -2 -223 -23 -82 -43 -113 -156 -62 -225 48 -64 57 -67 269 -70 l194 -3 0
-150 0 -149 -189 0 c-179 0 -190 -1 -221 -22 -72 -50 -95 -116 -65 -194 12
-32 29 -53 58 -72 40 -27 44 -27 229 -30 l188 -4 0 -294 0 -294 -184 0 c-197
0 -224 -5 -269 -48 -42 -40 -60 -80 -60 -137 0 -80 40 -138 115 -170 33 -13
225 -15 1730 -15 1621 0 1695 1 1733 19 62 28 115 104 115 166 0 32 -25 90
-53 122 -50 57 -75 63 -267 63 l-170 0 0 345 0 345 403 0 c300 0 428 4 506 15
286 41 565 147 802 304 l104 69 140 -138 c77 -76 150 -143 162 -149 32 -16
100 -13 139 5 66 31 101 128 73 201 -5 15 -68 86 -140 158 -71 72 -129 134
-129 138 0 4 28 40 63 80 34 40 70 83 80 97 l17 24 143 -141 c78 -78 155 -146
170 -152 103 -39 217 36 217 142 0 20 -5 48 -10 64 -6 15 -87 105 -180 198
l-169 170 45 103 c53 125 97 268 126 417 21 106 22 137 26 878 l3 767 193 0
c184 0 195 1 226 23 47 31 71 67 77 115 7 54 -24 118 -74 152 -35 24 -43 25
-230 28 l-193 4 0 128 0 129 199 3 c218 3 226 5 274 70 52 69 20 184 -63 226
-41 20 -57 22 -227 22 l-183 0 0 173 c0 128 -5 195 -19 262 -75 362 -369 649
-732 715 -85 16 -262 13 -347 -4 -224 -48 -443 -193 -572 -381 -48 -70 -107
-202 -132 -296 -22 -84 -22 -85 -28 -1249 -6 -1269 -1 -1175 -60 -1290 -28
-55 -109 -141 -169 -179 -93 -59 -151 -71 -351 -71 l-180 0 0 1513 c0 1639 1
1597 -55 1792 -14 50 -53 146 -86 214 l-61 124 140 141 c77 78 145 151 151
163 6 12 11 43 11 70 0 113 -120 187 -224 138 -17 -8 -87 -71 -155 -139 l-124
-124 -43 36 -44 36 134 136 c108 110 136 144 145 178 13 46 3 100 -24 140 -36
50 -125 75 -185 51z m-732 -589 l52 -12 -25 -30 c-18 -21 -25 -41 -25 -69 0
-51 13 -75 50 -94 45 -23 85 -19 122 14 28 24 32 36 33 75 0 25 1 46 3 46 1 0
28 -13 60 -29 157 -79 319 -246 404 -416 43 -85 44 -95 9 -95 -40 0 -89 -42
-97 -85 -8 -44 19 -100 56 -115 29 -12 79 -10 111 4 22 9 29 -64 29 -293 0
-159 -1 -173 -15 -154 -39 55 -139 49 -176 -11 -23 -37 -24 -67 -4 -106 20
-38 43 -50 98 -50 35 0 50 6 71 26 l26 27 0 -261 0 -260 -34 34 c-44 44 -99
47 -144 9 -38 -32 -48 -72 -28 -119 32 -77 136 -87 183 -17 l23 34 0 -2227 0
-2226 -181 0 c-179 0 -182 0 -211 25 -53 45 -103 45 -156 0 -30 -25 -32 -25
-222 -25 l-192 0 -35 30 c-22 20 -45 30 -65 30 -31 0 -98 -34 -98 -51 0 -5
-84 -9 -196 -9 -195 0 -196 0 -226 25 -53 45 -103 45 -156 0 -27 -23 -38 -25
-121 -25 l-91 0 0 75 c0 69 2 75 21 75 11 0 34 13 50 29 57 57 31 158 -45 177
l-26 6 0 193 0 193 30 7 c101 22 106 177 7 203 l-32 8 -3 192 -2 191 38 11
c56 14 77 42 77 100 0 58 -30 96 -82 106 l-33 6 0 194 0 194 31 0 c46 0 99 56
99 105 0 49 -53 105 -99 105 l-31 0 0 195 0 195 24 0 c42 0 75 18 96 52 24 40
25 60 5 103 -18 37 -52 58 -95 58 l-30 0 0 199 0 199 23 -2 c64 -6 109 25 121
82 13 67 -49 136 -115 127 l-29 -5 0 199 0 198 44 0 c81 0 132 72 102 143 -20
48 -56 70 -106 65 l-40 -4 0 203 0 202 35 -6 c104 -17 169 105 95 179 -27 27
-36 30 -80 26 l-50 -3 0 206 0 206 55 -5 c50 -4 57 -2 85 26 78 79 -9 212
-113 173 l-27 -11 0 158 c0 86 3 180 6 208 l6 51 45 -5 c74 -8 123 35 123 109
0 37 -56 99 -90 99 -25 0 -22 15 18 95 84 168 229 319 394 409 35 20 67 36 69
36 3 0 3 -18 1 -40 -4 -35 0 -44 31 -75 39 -39 78 -45 127 -20 37 19 50 43 50
94 0 28 -7 48 -25 69 l-25 30 52 11 c29 6 64 12 78 15 43 8 252 -1 308 -14z
m-3033 -799 c119 -42 229 -136 290 -246 54 -97 66 -153 72 -331 5 -140 3 -165
-11 -185 -20 -29 -21 -88 -2 -115 11 -15 15 -71 18 -242 1 -122 0 -222 -4
-222 -14 0 -38 -59 -38 -91 0 -36 55 -99 87 -99 13 0 27 -16 42 -47 77 -159
249 -324 415 -397 54 -24 56 -26 56 -64 0 -46 28 -87 65 -96 34 -9 86 16 114
54 l22 30 190 0 189 0 10 -24 c5 -13 14 -27 19 -31 7 -4 11 -79 11 -215 0
-207 0 -210 -25 -246 -32 -47 -32 -81 0 -128 25 -36 25 -40 25 -242 l0 -205
-367 2 c-203 0 -417 5 -478 11 -125 11 -292 51 -413 98 -79 30 -82 32 -75 58
11 42 7 72 -14 101 -41 54 -127 57 -169 6 l-20 -25 -60 41 c-32 23 -76 55 -97
72 l-38 30 39 17 c49 22 72 54 72 100 0 71 -69 122 -136 100 -41 -14 -74 -53
-74 -88 l0 -25 -26 24 c-26 24 -144 173 -144 182 0 3 11 8 25 11 29 7 65 59
65 94 0 56 -56 112 -113 112 -13 0 -36 -10 -51 -21 -15 -12 -29 -19 -32 -17
-12 13 -84 202 -84 222 0 12 -5 27 -11 33 -18 18 -58 242 -65 364 -7 114 -6
117 15 124 63 20 66 140 4 180 -23 15 -23 17 -23 213 l1 197 32 20 c62 39 62
131 -1 170 l-33 20 4 155 c5 165 18 231 55 268 12 12 26 40 32 62 23 86 177
206 316 245 73 21 242 14 319 -14z m6023 1 c23 -12 50 -22 58 -22 27 0 105
-51 158 -104 46 -46 51 -56 52 -95 0 -36 6 -49 31 -71 17 -15 36 -29 42 -31
20 -7 41 -141 41 -265 l0 -122 -34 -6 c-71 -14 -113 -93 -82 -155 17 -33 61
-61 96 -61 19 0 20 -5 20 -195 l0 -195 -34 0 c-65 0 -112 -68 -95 -136 12 -42
40 -65 88 -71 l41 -6 0 -196 0 -197 -32 3 c-76 8 -133 -71 -104 -142 18 -43
52 -65 98 -65 l38 0 0 -201 0 -201 -27 5 c-16 3 -42 -1 -59 -8 -69 -29 -86
-110 -35 -167 25 -28 36 -33 75 -33 l46 0 0 -151 c0 -83 -3 -172 -6 -198 l-7
-46 -44 0 c-84 0 -129 -81 -89 -159 14 -27 53 -51 81 -51 21 0 19 -9 -19 -125
-133 -397 -424 -728 -804 -915 -88 -43 -235 -100 -260 -100 -6 0 -10 16 -9 34
1 48 -19 82 -61 102 -48 23 -105 6 -132 -39 -24 -38 -25 -68 -5 -107 12 -23
12 -31 2 -37 -6 -4 -111 -9 -231 -11 l-220 -4 27 32 c49 58 31 137 -39 166
-102 43 -190 -80 -118 -165 l26 -31 -181 0 -181 0 0 540 0 540 24 0 c25 0 25
0 10 -36 -29 -69 21 -144 95 -144 46 0 79 23 97 66 12 28 12 40 1 72 l-14 39
116 7 c211 11 370 67 517 180 l72 55 6 -34 c18 -92 150 -115 192 -34 37 72 1
147 -74 158 l-42 6 33 46 c41 58 101 185 124 264 16 55 18 152 23 1230 l5
1170 23 66 c54 160 190 301 337 348 91 30 93 30 200 28 81 -2 108 -7 143 -25z"/>
<path d="M5251 7096 c-92 -51 -51 -196 55 -196 33 0 81 25 94 49 13 25 13 87
0 112 -23 43 -101 61 -149 35z"/>
<path d="M5828 7081 c-28 -25 -33 -36 -33 -75 0 -60 34 -96 97 -103 40 -5 49
-2 79 25 29 26 34 37 34 77 0 40 -5 51 -33 76 -24 22 -42 29 -72 29 -30 0 -48
-7 -72 -29z"/>
<path d="M6441 7096 c-68 -38 -66 -152 4 -184 75 -34 155 13 155 93 0 81 -87
131 -159 91z"/>
<path d="M5529 6782 c-27 -24 -32 -36 -33 -76 -1 -42 3 -51 32 -77 60 -53 151
-30 170 44 28 106 -88 181 -169 109z"/>
<path d="M6133 6790 c-87 -53 -43 -190 60 -190 99 1 143 106 73 176 -40 40
-83 45 -133 14z"/>
<path d="M5254 6500 c-33 -13 -64 -59 -64 -94 0 -45 33 -92 73 -105 68 -23
139 30 139 103 0 44 -16 72 -52 91 -32 17 -64 18 -96 5z"/>
<path d="M5845 6498 c-60 -32 -74 -114 -30 -166 32 -38 72 -48 118 -28 38 15
67 59 67 98 0 74 -92 131 -155 96z"/>
<path d="M6444 6500 c-35 -14 -64 -59 -64 -100 0 -74 75 -125 143 -97 43 18
67 52 67 94 0 47 -19 80 -55 98 -36 17 -59 18 -91 5z"/>
<path d="M5542 6195 c-67 -29 -78 -139 -17 -179 38 -25 107 -21 138 8 55 51
40 143 -28 172 -42 17 -51 17 -93 -1z"/>
<path d="M6144 6201 c-67 -29 -85 -121 -35 -172 24 -24 38 -29 76 -29 63 0
105 39 105 99 0 74 -80 130 -146 102z"/>
<path d="M5243 5896 c-33 -15 -63 -60 -63 -96 0 -34 28 -78 60 -95 37 -19 63
-19 100 0 37 19 50 43 50 94 0 78 -77 128 -147 97z"/>
<path d="M5844 5900 c-80 -32 -86 -158 -9 -195 45 -21 66 -19 106 8 69 46 60
151 -16 183 -39 16 -51 16 -81 4z"/>
<path d="M6433 5896 c-41 -19 -67 -68 -59 -114 20 -127 206 -114 206 15 0 80
-76 131 -147 99z"/>
<path d="M5512 5575 c-83 -70 -17 -201 91 -181 63 12 98 77 77 141 -22 65
-112 87 -168 40z"/>
<path d="M6117 5589 c-24 -14 -47 -62 -47 -100 0 -22 10 -41 34 -65 73 -73
176 -24 176 82 0 53 -45 94 -102 94 -24 0 -51 -5 -61 -11z"/>
<path d="M5215 5278 c-50 -45 -49 -127 3 -168 21 -17 36 -21 69 -17 51 5 71
20 90 65 40 97 -84 188 -162 120z"/>
<path d="M5801 5271 c-53 -49 -39 -137 26 -170 69 -35 153 17 153 95 0 93
-111 139 -179 75z"/>
<path d="M6398 5271 c-28 -25 -33 -36 -33 -76 0 -40 5 -51 34 -77 30 -26 39
-30 77 -25 52 5 72 20 91 65 43 103 -85 188 -169 113z"/>
<path d="M5499 4971 c-24 -24 -29 -38 -29 -76 0 -65 39 -105 102 -105 100 1
144 106 74 176 -46 46 -104 48 -147 5z"/>
<path d="M6094 4966 c-26 -26 -34 -42 -34 -71 0 -55 52 -105 110 -105 58 0
100 41 100 100 0 52 -13 76 -50 95 -49 25 -88 19 -126 -19z"/>
<path d="M6689 4971 c-24 -24 -29 -38 -29 -76 0 -100 105 -142 176 -71 26 26
34 42 34 71 0 29 -8 45 -34 71 -46 46 -104 48 -147 5z"/>
<path d="M5214 4681 c-91 -56 -48 -191 60 -191 69 0 115 56 102 124 -13 70
-100 106 -162 67z"/>
<path d="M5824 4690 c-56 -22 -79 -93 -49 -150 19 -37 43 -50 95 -50 78 0 123
78 89 153 -21 46 -84 68 -135 47z"/>
<path d="M6408 4685 c-65 -36 -73 -122 -17 -169 85 -72 208 16 165 117 -7 18
-20 38 -29 45 -25 21 -88 24 -119 7z"/>
<path d="M5495 4367 c-28 -28 -35 -43 -35 -74 0 -73 63 -122 132 -103 47 14
69 41 75 93 5 38 1 48 -23 76 -21 23 -41 34 -71 38 -39 5 -46 2 -78 -30z"/>
<path d="M6108 4384 c-31 -16 -58 -61 -58 -96 0 -62 68 -113 133 -101 39 8 79
55 80 97 2 88 -80 142 -155 100z"/>
<path d="M6685 4367 c-28 -28 -35 -43 -35 -74 0 -74 63 -122 134 -102 110 30
92 191 -22 206 -37 5 -45 2 -77 -30z"/>
<path d="M5234 4093 c-38 -7 -76 -58 -78 -102 -2 -77 85 -132 153 -97 33 17
61 62 61 96 0 37 -30 81 -65 96 -19 8 -38 13 -42 13 -4 -1 -18 -4 -29 -6z"/>
<path d="M5810 4082 c-44 -22 -62 -56 -56 -106 7 -58 44 -91 102 -91 39 0 50
5 75 33 52 58 34 138 -37 168 -42 18 -42 18 -84 -4z"/>
<path d="M6423 4093 c-29 -6 -70 -48 -75 -78 -17 -89 73 -161 151 -121 33 17
61 62 61 96 0 37 -30 81 -65 96 -19 8 -38 13 -42 13 -4 -1 -18 -4 -30 -6z"/>
<path d="M6125 3792 c-29 -6 -73 -51 -80 -82 -13 -60 44 -130 105 -130 34 0
79 28 96 61 39 76 -34 168 -121 151z"/>
<path d="M6713 3788 c-44 -11 -73 -52 -73 -100 0 -32 7 -47 35 -75 32 -32 39
-35 78 -30 83 11 121 92 77 165 -11 17 -21 32 -22 32 -2 0 -17 4 -33 8 -17 5
-44 5 -62 0z"/>
<path d="M5479 3761 c-62 -62 -22 -166 68 -178 39 -5 46 -2 78 30 29 29 35 42
35 77 0 61 -41 100 -105 100 -38 0 -52 -5 -76 -29z"/>
<path d="M5179 3461 c-23 -23 -29 -38 -29 -71 0 -52 13 -76 50 -95 49 -25 88
-19 126 19 70 70 26 175 -74 176 -35 0 -49 -6 -73 -29z"/>
<path d="M5773 3455 c-32 -32 -35 -39 -30 -78 4 -30 15 -50 38 -71 28 -24 38
-28 76 -23 51 5 80 28 92 71 18 71 -30 136 -101 136 -33 0 -47 -7 -75 -35z"/>
<path d="M6369 3461 c-23 -23 -29 -38 -29 -71 0 -52 13 -76 50 -95 49 -25 88
-19 126 19 70 70 26 175 -74 176 -35 0 -49 -6 -73 -29z"/>
<path d="M5474 3156 c-73 -73 -24 -176 82 -176 52 0 94 45 94 100 0 52 -13 76
-50 95 -49 25 -88 19 -126 -19z"/>
<path d="M6081 3174 c-36 -26 -54 -79 -41 -120 25 -76 112 -99 172 -45 28 25
33 36 33 76 0 40 -5 51 -33 76 -38 34 -93 39 -131 13z"/>
<path d="M6681 3176 c-30 -17 -50 -52 -51 -89 -1 -95 109 -143 179 -78 26 24
31 37 31 73 -1 85 -85 135 -159 94z"/>
<path d="M5174 2856 c-71 -71 -29 -176 71 -176 100 0 142 105 71 176 -26 26
-42 34 -71 34 -29 0 -45 -8 -71 -34z"/>
<path d="M5793 2880 c-13 -5 -32 -24 -43 -42 -63 -100 68 -209 158 -133 17 14
33 38 37 54 7 32 -13 88 -38 109 -21 18 -86 24 -114 12z"/>
<path d="M6381 2876 c-58 -32 -69 -119 -22 -167 23 -23 38 -29 71 -29 52 0 76
13 95 50 25 49 19 88 -19 126 -37 37 -81 44 -125 20z"/>
<path d="M5493 2580 c-28 -11 -63 -66 -63 -98 0 -13 7 -36 15 -52 40 -77 156
-68 191 15 36 87 -53 171 -143 135z"/>
<path d="M6080 2574 c-40 -28 -49 -46 -50 -91 0 -73 64 -121 138 -101 70 19
93 121 39 175 -32 33 -93 40 -127 17z"/>
<path d="M6684 2581 c-12 -5 -31 -22 -44 -38 -17 -22 -21 -37 -17 -71 5 -50
28 -79 71 -91 105 -27 180 90 109 169 -30 33 -82 46 -119 31z"/>
<path d="M5194 2276 c-41 -18 -64 -52 -64 -96 0 -99 121 -144 184 -69 72 86
-19 210 -120 165z"/>
<path d="M5784 2276 c-38 -17 -68 -75 -59 -116 8 -39 50 -78 90 -86 60 -11
125 44 125 106 0 37 -30 81 -65 96 -42 17 -51 17 -91 0z"/>
<path d="M6384 2276 c-69 -30 -86 -111 -35 -168 25 -28 36 -33 76 -33 40 0 51
5 76 33 50 56 36 133 -31 167 -35 18 -46 18 -86 1z"/>
<path d="M5464 1962 c-99 -79 -8 -227 109 -178 68 28 83 117 29 171 -31 31
-104 35 -138 7z"/>
<path d="M6049 1951 c-81 -81 18 -219 119 -167 69 36 84 115 33 167 -24 24
-38 29 -76 29 -38 0 -52 -5 -76 -29z"/>
<path d="M6657 1969 c-22 -13 -47 -61 -47 -91 0 -38 35 -85 74 -98 44 -14 98
1 121 33 24 35 19 100 -11 136 -22 27 -32 31 -72 31 -26 0 -55 -5 -65 -11z"/>
<path d="M5157 1654 c-33 -33 -41 -57 -33 -99 8 -42 57 -85 97 -85 37 0 85 24
99 49 5 11 10 38 10 61 0 60 -41 100 -103 100 -34 0 -50 -6 -70 -26z"/>
<path d="M5755 1658 c-76 -67 -30 -188 72 -188 40 0 89 40 98 80 9 40 -10 95
-40 114 -36 24 -99 21 -130 -6z"/>
<path d="M6354 1662 c-29 -23 -44 -54 -44 -92 0 -44 56 -100 99 -100 101 0
151 111 82 181 -24 23 -38 29 -73 29 -26 0 -52 -7 -64 -18z"/>
<path d="M5461 1364 c-36 -26 -54 -79 -41 -120 25 -76 112 -99 172 -45 28 25
33 36 33 76 0 40 -5 51 -33 76 -38 34 -93 39 -131 13z"/>
<path d="M6058 1364 c-64 -34 -66 -127 -4 -176 45 -37 127 -16 155 39 48 94
-56 189 -151 137z"/>
<path d="M6642 1355 c-36 -30 -47 -66 -32 -111 15 -45 54 -74 99 -74 44 0 75
20 97 62 51 98 -78 195 -164 123z"/>
<path d="M2874 6500 c-89 -36 -81 -170 12 -200 118 -39 191 141 79 195 -36 17
-59 18 -91 5z"/>
<path d="M2574 6201 c-67 -29 -85 -121 -35 -172 24 -24 38 -29 76 -29 63 0
105 39 105 99 0 74 -80 130 -146 102z"/>
<path d="M3163 6196 c-33 -15 -63 -60 -63 -96 0 -29 27 -77 49 -90 11 -5 40
-10 64 -10 74 0 116 60 95 136 -16 58 -85 86 -145 60z"/>
<path d="M2863 5896 c-34 -16 -63 -61 -63 -99 0 -41 41 -91 83 -101 100 -25
170 97 100 174 -33 36 -76 45 -120 26z"/>
<path d="M2529 5571 c-43 -43 -41 -101 5 -147 26 -26 42 -34 71 -34 29 0 45 8
71 34 71 71 29 176 -71 176 -38 0 -52 -5 -76 -29z"/>
<path d="M3129 5571 c-48 -49 -34 -142 26 -169 47 -22 84 -15 121 22 38 38 44
77 19 126 -19 37 -43 50 -95 50 -33 0 -48 -6 -71 -29z"/>
<path d="M2837 5280 c-82 -65 -34 -190 72 -190 20 0 42 11 63 29 28 25 33 36
33 76 0 40 -5 51 -33 76 -40 36 -96 39 -135 9z"/>
<path d="M2541 4984 c-13 -9 -29 -31 -37 -50 -43 -102 80 -190 165 -118 75 63
30 184 -69 184 -20 0 -46 -7 -59 -16z"/>
<path d="M3141 4986 c-32 -18 -50 -53 -51 -99 -1 -105 150 -136 199 -40 47 92
-56 190 -148 139z"/>
<path d="M2845 4689 c-37 -21 -55 -53 -55 -97 0 -60 41 -102 100 -102 52 0 76
13 95 50 23 45 19 85 -12 120 -31 35 -94 49 -128 29z"/>
<path d="M3450 4693 c-53 -19 -82 -89 -60 -143 42 -101 200 -70 200 40 0 23
-5 50 -10 61 -20 36 -86 58 -130 42z"/>
<path d="M3144 4390 c-35 -14 -64 -59 -64 -100 0 -74 76 -124 145 -96 43 18
65 52 65 99 0 31 -7 46 -34 73 -35 35 -68 42 -112 24z"/>
<path d="M3723 4380 c-45 -27 -62 -84 -39 -132 20 -42 54 -62 102 -61 47 1 80
25 94 68 16 48 -2 100 -44 126 -40 24 -73 24 -113 -1z"/>
<path d="M4305 4367 c-28 -28 -35 -43 -35 -75 0 -76 74 -127 143 -99 104 44
83 189 -30 204 -39 5 -46 2 -78 -30z"/>
<path d="M3442 4089 c-37 -11 -72 -59 -72 -99 0 -37 33 -85 69 -100 41 -17
104 1 127 35 20 30 22 86 5 118 -22 41 -77 61 -129 46z"/>
<path d="M4043 4093 c-12 -2 -34 -18 -48 -34 -78 -93 35 -225 135 -157 100 68
33 215 -87 191z"/>
<path d="M3743 3788 c-45 -12 -73 -51 -73 -102 0 -49 18 -79 59 -96 91 -37
178 55 136 143 -23 48 -69 69 -122 55z"/>
<path d="M4332 3788 c-39 -10 -72 -58 -72 -105 0 -43 41 -90 86 -99 70 -13
124 33 124 105 0 71 -66 118 -138 99z"/>
<path d="M8808 6493 c-35 -22 -52 -64 -45 -109 22 -132 207 -109 207 25 0 73
-100 124 -162 84z"/>
<path d="M8515 6195 c-41 -20 -57 -50 -57 -99 2 -119 190 -133 208 -16 3 19 1
47 -5 62 -20 53 -94 80 -146 53z"/>
<path d="M9113 6196 c-33 -15 -63 -60 -63 -96 0 -29 27 -77 49 -90 11 -5 38
-10 61 -10 33 0 48 6 71 29 80 81 -14 213 -118 167z"/>
<path d="M8803 5890 c-62 -37 -72 -108 -24 -162 25 -28 36 -33 76 -33 40 0 51
5 76 33 52 58 34 138 -37 168 -44 18 -53 18 -91 -6z"/>
<path d="M8479 5571 c-47 -48 -37 -130 21 -164 88 -52 189 39 150 134 -17 41
-47 59 -98 59 -35 0 -49 -6 -73 -29z"/>
<path d="M9078 5577 c-50 -47 -49 -118 3 -161 79 -67 195 9 168 109 -20 72
-118 101 -171 52z"/>
<path d="M8791 5286 c-31 -17 -50 -53 -51 -94 0 -26 9 -43 34 -68 38 -38 77
-44 126 -19 37 19 50 43 50 95 0 80 -86 126 -159 86z"/>
<path d="M8491 4986 c-48 -27 -64 -91 -36 -146 19 -37 43 -50 90 -50 47 0 71
13 90 50 51 99 -48 199 -144 146z"/>
<path d="M9068 4971 c-28 -25 -33 -36 -33 -76 0 -40 5 -51 33 -76 58 -52 138
-34 169 38 43 104 -85 189 -169 114z"/>
<path d="M8795 4691 c-103 -43 -70 -201 43 -201 61 0 102 40 102 100 0 52 -13
76 -50 95 -32 16 -64 18 -95 6z"/>
<path d="M8495 4391 c-59 -25 -84 -114 -45 -163 62 -79 190 -36 190 64 0 32
-7 47 -34 74 -35 35 -68 42 -111 25z"/>
<path d="M9082 4387 c-94 -53 -60 -200 47 -200 54 0 88 24 102 72 9 32 9 47
-1 72 -24 57 -96 84 -148 56z"/>
<path d="M8782 4085 c-46 -20 -68 -75 -52 -127 29 -100 171 -99 201 1 26 88
-62 164 -149 126z"/>
<path d="M8510 3793 c-85 -24 -117 -109 -64 -172 44 -52 132 -51 169 3 23 32
19 100 -7 131 -24 26 -72 45 -98 38z"/>
<path d="M9093 3788 c-91 -24 -100 -162 -13 -198 64 -27 135 14 146 82 6 34
-13 89 -36 103 -25 15 -67 21 -97 13z"/>
<path d="M8751 3464 c-59 -49 -47 -137 24 -171 50 -24 102 -9 133 37 68 100
-64 213 -157 134z"/>
<path d="M7871 3176 c-32 -18 -50 -53 -51 -98 0 -28 7 -44 31 -67 66 -67 179
-21 179 73 0 82 -87 132 -159 92z"/>
<path d="M8448 3161 c-28 -25 -33 -36 -33 -76 0 -40 5 -51 33 -76 58 -52 138
-34 169 38 43 104 -85 189 -169 114z"/>
<path d="M9058 3174 c-36 -19 -48 -43 -48 -94 0 -81 82 -125 159 -86 49 26 65
94 34 146 -29 49 -91 64 -145 34z"/>
<path d="M7575 2878 c-37 -20 -55 -52 -55 -96 0 -112 158 -144 200 -42 37 90
-62 184 -145 138z"/>
<path d="M8144 2856 c-49 -49 -45 -114 10 -158 27 -22 94 -23 125 -2 60 42 58
138 -2 174 -50 31 -93 26 -133 -14z"/>
<path d="M8753 2871 c-84 -53 -46 -191 54 -191 46 0 79 18 98 55 51 94 -60
194 -152 136z"/>
<path d="M7268 2574 c-36 -19 -48 -43 -48 -93 0 -59 42 -104 96 -104 110 0
155 130 65 190 -39 26 -74 29 -113 7z"/>
<path d="M7874 2581 c-60 -26 -83 -114 -43 -165 60 -76 189 -33 189 64 0 73
-81 128 -146 101z"/>
<path d="M8454 2571 c-58 -36 -66 -117 -15 -164 61 -59 161 -26 177 58 7 42
-17 90 -56 110 -39 20 -68 19 -106 -4z"/>
</g>
</svg>
