<?xml version="1.0" standalone="no"?>
<!DOCTYPE svg PUBLIC "-//W3C//DTD SVG 20010904//EN"
 "http://www.w3.org/TR/2001/REC-SVG-20010904/DTD/svg10.dtd">
<svg version="1.0" xmlns="http://www.w3.org/2000/svg"
 width="2924.000000pt" height="632.000000pt" viewBox="0 0 2924.000000 632.000000"
 preserveAspectRatio="xMidYMid meet">

<g transform="translate(0.000000,632.000000) scale(0.100000,-0.100000)"
     stroke="none">
<path d="M15454 6268 c-16 -11 -83 -74 -149 -139 l-120 -118 -90 34 c-289 108
-604 96 -883 -35 -285 -134 -501 -377 -602 -678 -57 -170 -60 -217 -60 -974
l0 -688 -107 0 c-211 1 -310 29 -404 116 -54 51 -88 102 -116 174 -14 39 -18
101 -23 455 l-5 410 -31 87 c-106 298 -344 491 -651 530 -111 14 -223 2 -339
-37 l-78 -26 -116 116 c-127 126 -165 149 -229 134 -21 -5 -49 -22 -68 -43
-28 -30 -33 -43 -33 -85 0 -42 6 -56 39 -98 21 -26 70 -79 109 -117 l70 -69
-26 -33 c-15 -19 -31 -34 -37 -34 -5 0 -58 48 -117 107 -106 105 -107 106
-161 111 -49 4 -57 2 -90 -28 -41 -35 -57 -78 -49 -130 4 -29 31 -62 146 -180
l142 -145 -13 -60 c-10 -46 -12 -197 -10 -670 3 -585 4 -614 25 -707 135 -598
543 -1056 1105 -1243 215 -72 258 -77 685 -82 l382 -5 0 -239 0 -239 -150 0
c-171 0 -208 -9 -240 -62 -27 -45 -27 -117 1 -152 39 -50 65 -56 234 -56 l155
0 0 -124 0 -124 -157 -4 c-173 -4 -204 -12 -237 -68 -36 -62 -9 -160 51 -190
19 -10 78 -15 186 -18 l157 -4 0 -248 0 -249 -169 -3 c-185 -3 -197 -7 -245
-71 -28 -38 -28 -125 0 -164 33 -44 80 -71 137 -78 29 -3 684 -5 1457 -3 1397
3 1405 3 1440 24 106 62 108 212 4 271 -35 21 -52 23 -186 23 l-148 0 0 289 0
289 363 5 c305 4 379 8 472 26 214 39 435 127 615 245 47 31 90 56 95 56 6 0
60 -50 120 -111 61 -61 122 -117 137 -125 82 -43 188 27 188 124 0 50 -12 67
-133 189 l-110 111 56 66 c30 35 62 75 71 88 l16 23 123 -122 c67 -66 132
-126 144 -132 104 -53 225 82 169 187 -8 15 -76 88 -150 162 -75 74 -136 140
-136 146 0 6 13 40 29 75 35 78 75 204 104 324 20 85 21 125 26 760 l6 670
173 5 174 5 33 37 c62 68 52 155 -24 205 -32 22 -44 23 -197 23 l-164 0 0 109
0 109 168 3 c166 4 169 4 204 31 80 61 71 179 -16 226 -24 13 -66 17 -193 20
l-163 4 0 155 c0 178 -14 259 -66 371 -158 346 -536 529 -900 437 -80 -20
-226 -94 -296 -149 -127 -101 -229 -263 -268 -426 -19 -82 -20 -116 -20 -1033
0 -831 -2 -957 -16 -1018 -29 -128 -127 -241 -254 -291 -46 -18 -81 -22 -217
-26 l-163 -4 0 1285 c0 860 -4 1311 -11 1363 -16 115 -54 237 -110 353 l-51
104 121 121 c145 146 160 177 125 252 -29 62 -118 93 -177 63 -12 -6 -72 -60
-132 -120 l-111 -109 -34 35 -34 35 111 112 c130 133 145 163 118 235 -22 56
-63 83 -126 83 -32 0 -55 -7 -75 -22z m-617 -479 c35 -6 63 -13 63 -15 0 -3
-9 -14 -20 -26 -50 -54 -8 -148 65 -148 54 0 100 48 92 96 l-6 34 72 -37 c53
-27 99 -64 173 -138 83 -83 108 -116 147 -192 48 -93 48 -93 23 -93 -13 0 -38
-12 -55 -26 -63 -52 -28 -156 52 -156 21 0 44 5 51 11 22 18 26 -16 26 -212
l0 -178 -22 21 c-32 29 -92 27 -123 -5 -35 -34 -34 -93 1 -126 32 -30 93 -32
123 -5 l21 19 0 -212 0 -213 -31 26 c-41 35 -83 34 -120 -3 -37 -37 -38 -79
-3 -120 34 -41 92 -44 129 -6 l25 24 -1 -232 c0 -128 -3 -225 -6 -217 -30 83
-146 88 -172 7 -38 -113 125 -171 170 -62 4 11 8 -719 8 -1622 l1 -1643 -150
0 c-143 0 -151 1 -186 25 -47 32 -78 32 -120 0 -32 -24 -37 -25 -194 -25 -158
0 -163 1 -192 25 -37 32 -74 32 -120 0 -36 -24 -42 -25 -202 -25 -92 0 -166 4
-166 8 0 13 -57 42 -83 42 -14 0 -39 -11 -55 -25 -26 -22 -39 -25 -106 -25
l-76 0 0 65 c0 52 3 65 15 65 9 0 27 11 40 25 47 46 27 126 -37 148 -16 6 -18
23 -18 172 0 144 2 165 16 165 28 0 74 56 74 90 0 34 -46 90 -74 90 -14 0 -16
21 -16 164 l0 164 29 7 c38 8 60 34 67 77 5 27 1 40 -21 66 -16 20 -36 32 -51
32 l-24 0 0 165 0 166 29 5 c98 20 98 158 0 179 l-29 7 0 164 0 164 30 0 c45
0 80 39 80 87 -1 54 -38 93 -89 93 -20 0 -21 5 -21 168 l0 167 37 1 c67 1 102
69 68 133 -16 32 -33 41 -76 41 l-29 0 0 169 0 169 36 -1 c29 -1 42 5 65 31
16 18 29 41 29 53 0 55 -62 109 -109 94 -21 -6 -21 -4 -21 167 l0 174 39 -4
c54 -5 91 30 91 86 0 59 -27 87 -84 87 l-46 0 0 171 0 171 46 -1 c38 -1 50 4
70 27 33 38 32 90 -2 123 -21 22 -32 25 -70 22 l-44 -3 0 162 c0 89 3 168 6
177 4 11 12 13 27 7 12 -4 36 -4 54 1 83 22 85 134 3 168 -16 7 -30 17 -30 22
0 5 12 32 26 61 78 154 212 290 359 365 l41 20 -4 -34 c-6 -47 41 -94 93 -94
74 0 115 94 64 149 -12 12 -19 24 -17 26 22 22 247 31 345 14z m-2592 -675
c173 -44 310 -200 335 -379 16 -114 13 -249 -7 -290 -15 -32 -15 -40 -3 -68
10 -22 16 -91 20 -217 4 -166 3 -187 -12 -209 -38 -51 -13 -132 45 -146 14 -4
36 -31 62 -78 60 -107 177 -220 293 -280 90 -47 92 -49 92 -84 0 -79 75 -100
137 -38 l35 35 154 0 155 0 24 -27 c24 -27 24 -32 25 -201 0 -163 -1 -175 -22
-203 -29 -39 -29 -91 0 -122 22 -23 22 -30 20 -198 l-3 -174 -360 1 c-404 2
-472 9 -655 70 -135 45 -134 44 -119 77 9 20 9 33 -1 57 -26 64 -100 81 -147
34 -30 -30 -37 -28 -127 42 -58 46 -69 64 -38 64 25 0 60 40 68 76 4 24 0 37
-20 61 -31 36 -64 47 -102 33 -34 -13 -53 -38 -54 -67 0 -13 -4 -23 -8 -23 -5
0 -33 30 -62 68 -30 37 -60 75 -68 84 -12 15 -10 18 16 32 80 42 52 166 -38
166 -19 0 -45 -7 -57 -15 -20 -14 -22 -12 -46 43 -14 31 -31 75 -37 97 -7 22
-19 58 -26 80 -20 59 -41 187 -49 291 l-7 90 31 31 c43 43 43 94 1 133 l-30
28 0 166 c0 109 4 166 10 166 6 0 22 11 35 25 38 37 34 89 -10 131 l-35 33 0
98 c0 118 21 215 55 255 14 16 25 38 25 49 0 26 79 110 141 150 103 65 240 86
364 53z m5158 -7 c15 -9 34 -17 44 -17 24 0 87 -42 141 -93 33 -33 42 -48 42
-75 0 -27 8 -42 36 -69 47 -44 64 -110 64 -249 l0 -101 -30 -7 c-17 -3 -42
-17 -56 -32 -22 -21 -26 -32 -21 -65 7 -50 20 -66 68 -81 l39 -11 0 -164 0
-163 -33 0 c-58 0 -100 -66 -76 -121 12 -32 54 -59 89 -59 19 0 20 -5 20 -165
l0 -165 -25 0 c-71 0 -117 -63 -91 -125 16 -39 42 -55 85 -55 l31 0 0 -168 0
-167 -41 0 c-52 0 -89 -38 -89 -91 0 -57 42 -90 108 -84 22 1 22 0 22 -123 0
-68 -3 -145 -6 -171 -7 -45 -8 -46 -43 -46 -106 -1 -125 -140 -23 -175 l31
-10 -28 -86 c-61 -188 -163 -358 -305 -507 -151 -157 -320 -270 -514 -341 -96
-36 -106 -37 -98 -14 11 28 -14 82 -46 99 -39 20 -81 10 -113 -28 -29 -34 -31
-52 -10 -92 9 -16 13 -31 10 -34 -2 -3 -94 -7 -202 -8 -109 -2 -192 -1 -185 2
18 8 42 59 42 88 0 14 -11 37 -24 53 -34 39 -98 39 -132 0 -32 -38 -32 -90 1
-122 l24 -25 -159 0 -160 0 0 460 0 460 25 0 c22 0 24 -3 15 -19 -31 -60 9
-132 74 -134 32 -1 44 5 68 32 30 33 33 58 13 104 -6 15 -1 17 48 17 186 0
365 59 489 161 54 45 58 46 58 18 0 -11 14 -34 30 -51 27 -26 36 -30 68 -25
69 11 100 74 67 136 -16 31 -33 41 -72 41 l-25 0 21 33 c46 69 93 173 112 245
18 72 19 120 19 1006 0 528 5 963 10 1004 23 180 160 339 330 387 74 20 227
16 263 -8z"/>
<path d="M14125 5495 c-32 -31 -34 -96 -5 -125 44 -44 118 -33 146 22 45 87
-72 173 -141 103z"/>
<path d="M14639 5507 c-67 -51 -41 -150 43 -164 32 -5 41 -1 68 25 60 61 26
152 -57 152 -21 0 -45 -6 -54 -13z"/>
<path d="M15135 5495 c-28 -27 -34 -88 -12 -116 21 -27 57 -41 92 -35 41 8 64
34 72 79 5 31 1 40 -25 67 -39 39 -91 41 -127 5z"/>
<path d="M14395 5258 c-33 -18 -45 -40 -45 -83 0 -80 91 -119 147 -62 69 69
-17 192 -102 145z"/>
<path d="M14898 5255 c-69 -39 -65 -131 8 -161 88 -37 165 69 102 140 -29 32
-74 41 -110 21z"/>
<path d="M14135 4998 c-32 -19 -44 -40 -45 -81 0 -83 100 -120 154 -56 35 41
34 83 -3 120 -31 31 -70 37 -106 17z"/>
<path d="M14637 4999 c-26 -15 -46 -68 -40 -102 12 -63 102 -89 148 -42 25 24
33 73 19 110 -14 36 -89 56 -127 34z"/>
<path d="M15129 4981 c-59 -59 -22 -151 61 -151 30 0 44 6 64 31 35 41 34 83
-3 120 -20 20 -39 29 -61 29 -22 0 -41 -9 -61 -29z"/>
<path d="M14365 4725 c-38 -37 -35 -95 7 -130 56 -47 132 -18 144 56 14 82
-92 133 -151 74z"/>
<path d="M14869 4724 c-16 -18 -24 -37 -24 -65 0 -48 27 -77 76 -85 82 -14
133 92 74 151 -34 35 -93 34 -126 -1z"/>
<path d="M14128 4485 c-69 -39 -65 -131 8 -161 88 -37 165 69 102 140 -29 32
-74 41 -110 21z"/>
<path d="M14650 4493 c-63 -23 -82 -109 -35 -153 38 -36 90 -33 126 8 32 36
36 60 15 101 -21 39 -67 58 -106 44z"/>
<path d="M15141 4486 c-13 -7 -30 -24 -37 -37 -54 -97 86 -188 150 -97 52 74
-35 179 -113 134z"/>
<path d="M14361 4214 c-64 -53 -23 -154 61 -154 28 0 42 7 62 31 35 41 34 83
-3 120 -37 37 -79 38 -120 3z"/>
<path d="M14885 4228 c-33 -17 -45 -40 -45 -80 0 -76 83 -115 143 -68 83 65
-5 199 -98 148z"/>
<path d="M14103 3958 c-30 -34 -36 -62 -19 -102 25 -59 85 -72 135 -30 65 54
28 154 -57 154 -27 0 -45 -7 -59 -22z"/>
<path d="M14605 3955 c-35 -34 -34 -93 1 -126 37 -35 98 -33 130 4 31 37 31
78 -2 116 -34 41 -92 44 -129 6z"/>
<path d="M15115 3958 c-44 -38 -35 -117 15 -143 36 -19 54 -19 90 0 35 18 55
71 41 108 -22 57 -99 75 -146 35z"/>
<path d="M14369 3715 c-62 -34 -59 -134 5 -160 63 -27 126 13 126 81 0 66 -74
111 -131 79z"/>
<path d="M14884 3720 c-47 -19 -68 -85 -43 -132 17 -31 71 -50 108 -37 68 24
79 122 18 159 -35 22 -50 23 -83 10z"/>
<path d="M14112 3460 c-13 -5 -29 -26 -38 -45 -38 -91 68 -166 143 -101 35 30
39 95 7 126 -24 24 -79 34 -112 20z"/>
<path d="M14599 3441 c-20 -20 -29 -39 -29 -61 0 -22 9 -41 29 -61 60 -59 151
-24 151 58 -1 86 -91 124 -151 64z"/>
<path d="M15125 3458 c-33 -17 -45 -40 -45 -80 0 -79 86 -116 147 -64 22 19
28 32 28 66 0 34 -6 47 -28 66 -30 26 -69 30 -102 12z"/>
<path d="M14343 3188 c-27 -30 -34 -63 -21 -99 10 -29 52 -59 83 -59 31 0 73
30 83 59 22 64 -17 121 -83 121 -30 0 -47 -6 -62 -22z"/>
<path d="M14862 3203 c-18 -7 -42 -57 -42 -87 0 -14 11 -37 24 -53 19 -22 32
-28 66 -28 34 0 47 6 66 28 52 61 15 148 -63 146 -21 0 -44 -3 -51 -6z"/>
<path d="M15355 3185 c-38 -37 -35 -95 6 -129 48 -41 106 -30 134 25 47 89
-69 176 -140 104z"/>
<path d="M14114 2950 c-49 -20 -70 -93 -39 -137 35 -50 123 -46 151 8 19 37
12 88 -14 113 -23 20 -70 28 -98 16z"/>
<path d="M14614 2946 c-38 -17 -60 -69 -45 -107 36 -94 171 -75 174 25 2 66
-67 110 -129 82z"/>
<path d="M15124 2950 c-47 -19 -68 -85 -43 -132 6 -11 26 -26 45 -34 88 -37
165 69 102 140 -25 29 -72 40 -104 26z"/>
<path d="M14355 2688 c-52 -28 -63 -101 -20 -143 53 -54 155 -11 155 65 0 64
-78 110 -135 78z"/>
<path d="M14843 2676 c-22 -19 -28 -32 -28 -66 0 -99 132 -126 171 -35 37 89
-69 165 -143 101z"/>
<path d="M15349 2671 c-57 -58 -22 -151 58 -151 46 0 93 45 93 90 0 43 -47 90
-90 90 -22 0 -41 -9 -61 -29z"/>
<path d="M14092 2433 c-18 -7 -42 -57 -42 -87 0 -14 11 -37 24 -53 19 -22 32
-28 66 -28 34 0 47 6 66 28 52 61 15 148 -63 146 -21 0 -44 -3 -51 -6z"/>
<path d="M14585 2415 c-39 -38 -37 -88 6 -127 45 -43 106 -33 134 21 21 42 19
65 -11 100 -34 41 -92 44 -129 6z"/>
<path d="M15085 2408 c-47 -56 -18 -132 56 -144 82 -14 133 92 74 151 -37 38
-95 35 -130 -7z"/>
<path d="M14354 2180 c-47 -19 -68 -85 -43 -132 6 -11 26 -26 45 -34 88 -37
165 69 102 140 -25 29 -72 40 -104 26z"/>
<path d="M14865 2181 c-90 -37 -68 -171 28 -174 92 -3 128 126 47 168 -32 17
-46 18 -75 6z"/>
<path d="M15353 2171 c-92 -57 -18 -198 82 -157 39 17 55 42 55 89 0 66 -77
105 -137 68z"/>
<path d="M14073 1906 c-22 -19 -28 -32 -28 -66 0 -34 6 -47 28 -66 62 -53 147
-15 147 66 0 81 -85 119 -147 66z"/>
<path d="M14579 1901 c-20 -20 -29 -39 -29 -61 0 -43 47 -90 90 -90 43 0 90
47 90 90 0 43 -47 90 -90 90 -22 0 -41 -9 -61 -29z"/>
<path d="M15097 1919 c-11 -6 -25 -26 -33 -45 -35 -84 60 -160 134 -108 49 34
48 115 -1 149 -25 17 -74 19 -100 4z"/>
<path d="M14316 1639 c-14 -17 -26 -39 -26 -50 0 -50 49 -99 100 -99 10 0 32
12 49 26 65 54 28 154 -58 154 -32 0 -44 -6 -65 -31z"/>
<path d="M14825 1645 c-33 -32 -33 -84 -1 -122 19 -22 32 -28 66 -28 73 0 110
67 75 134 -16 33 -33 41 -81 41 -24 0 -43 -8 -59 -25z"/>
<path d="M15326 1639 c-29 -35 -32 -58 -12 -98 14 -26 53 -51 81 -51 30 0 65
24 79 54 30 64 -12 126 -84 126 -30 0 -44 -6 -64 -31z"/>
<path d="M14095 1411 c-92 -38 -70 -171 28 -174 94 -3 128 126 46 168 -31 17
-45 18 -74 6z"/>
<path d="M14583 1401 c-59 -37 -53 -125 13 -156 29 -14 37 -14 68 -1 40 17 56
42 56 89 0 66 -77 105 -137 68z"/>
<path d="M15104 1410 c-77 -31 -67 -157 13 -173 97 -19 153 113 70 164 -35 21
-51 22 -83 9z"/>
<path d="M14323 1145 c-12 -8 -27 -31 -33 -49 -28 -87 77 -152 147 -92 61 52
21 156 -60 156 -18 0 -42 -7 -54 -15z"/>
<path d="M14819 1131 c-20 -20 -29 -39 -29 -61 0 -40 47 -90 85 -90 56 0 94
36 94 90 0 83 -91 120 -150 61z"/>
<path d="M15325 1135 c-17 -16 -25 -35 -25 -59 0 -48 8 -65 41 -81 40 -21 74
-18 106 9 22 19 28 32 28 66 0 34 -6 47 -28 66 -38 32 -90 32 -122 -1z"/>
<path d="M14605 902 c-29 -6 -63 -41 -70 -73 -13 -59 51 -120 110 -105 112 28
74 200 -40 178z"/>
<path d="M14055 875 c-33 -32 -33 -84 -1 -122 19 -22 32 -28 66 -28 73 0 110
67 75 134 -16 33 -33 41 -81 41 -24 0 -43 -8 -59 -25z"/>
<path d="M15082 893 c-18 -7 -42 -57 -42 -87 0 -14 11 -37 24 -53 19 -22 32
-28 66 -28 34 0 47 6 66 28 52 61 15 148 -63 146 -21 0 -44 -3 -51 -6z"/>
<path d="M14340 643 c-34 -13 -60 -47 -60 -80 0 -46 16 -72 52 -87 102 -43
179 97 85 154 -32 20 -50 23 -77 13z"/>
<path d="M14829 635 c-81 -44 -44 -171 48 -168 49 1 83 39 83 91 -1 44 -16 67
-54 82 -35 13 -45 12 -77 -5z"/>
<path d="M15344 640 c-74 -31 -69 -142 8 -169 36 -13 90 6 107 37 40 75 -38
165 -115 132z"/>
<path d="M12089 4981 c-20 -20 -29 -39 -29 -61 0 -22 9 -41 29 -61 60 -59 151
-24 151 58 -1 86 -91 124 -151 64z"/>
<path d="M11835 4725 c-32 -31 -34 -96 -5 -125 44 -44 118 -33 146 22 45 87
-72 173 -141 103z"/>
<path d="M12349 4737 c-44 -33 -50 -93 -15 -134 19 -22 32 -28 66 -28 34 0 47
6 66 28 52 61 15 147 -63 147 -21 0 -45 -6 -54 -13z"/>
<path d="M12104 4488 c-81 -39 -49 -172 41 -172 83 0 118 100 56 156 -33 29
-61 34 -97 16z"/>
<path d="M11845 4228 c-52 -30 -62 -102 -20 -143 53 -54 155 -11 155 65 0 64
-79 110 -135 78z"/>
<path d="M12355 4229 c-33 -19 -45 -41 -45 -81 0 -79 86 -116 147 -64 35 30
39 95 7 126 -24 25 -82 35 -109 19z"/>
<path d="M12075 3954 c-33 -35 -33 -84 -1 -121 19 -22 32 -28 66 -28 70 0 111
67 78 128 -29 55 -102 65 -143 21z"/>
<path d="M11841 3716 c-55 -31 -65 -91 -22 -138 22 -25 37 -32 64 -32 110 0
120 160 12 179 -17 3 -41 -1 -54 -9z"/>
<path d="M12354 3720 c-47 -19 -68 -85 -43 -132 17 -31 71 -50 108 -37 68 24
79 122 18 159 -35 22 -50 23 -83 10z"/>
<path d="M12075 3448 c-15 -14 -28 -38 -32 -60 -5 -32 -1 -41 25 -68 61 -60
152 -26 152 57 -1 42 -13 63 -47 81 -33 18 -69 14 -98 -10z"/>
<path d="M12595 3458 c-32 -18 -44 -40 -45 -79 0 -49 39 -89 87 -89 46 0 93
45 93 90 0 64 -79 110 -135 78z"/>
<path d="M12316 3179 c-15 -17 -26 -43 -26 -59 0 -40 37 -79 81 -86 82 -13
134 92 74 151 -37 38 -95 35 -129 -6z"/>
<path d="M12825 3185 c-38 -37 -35 -95 7 -130 56 -47 132 -18 144 56 14 82
-92 133 -151 74z"/>
<path d="M13332 3187 c-32 -34 -37 -76 -13 -114 39 -62 124 -52 159 20 10 22
10 32 -2 61 -8 19 -23 39 -34 45 -35 19 -86 13 -110 -12z"/>
<path d="M12588 2945 c-49 -27 -60 -72 -33 -125 27 -53 115 -57 150 -7 53 76
-37 176 -117 132z"/>
<path d="M13110 2953 c-36 -13 -60 -47 -60 -84 0 -87 94 -124 152 -60 15 17
28 40 28 52 0 36 -28 76 -61 88 -35 12 -37 12 -59 4z"/>
<path d="M12819 2671 c-20 -20 -29 -39 -29 -61 0 -45 47 -90 93 -90 44 0 87
46 87 92 0 41 -48 88 -90 88 -22 0 -41 -9 -61 -29z"/>
<path d="M13339 2685 c-38 -20 -52 -67 -35 -110 25 -59 93 -74 143 -31 22 19
28 32 28 66 0 73 -70 111 -136 75z"/>
<path d="M17153 4986 c-37 -32 -39 -93 -4 -130 55 -58 151 -18 151 61 -1 82
-85 122 -147 69z"/>
<path d="M16903 4735 c-52 -36 -46 -125 11 -152 59 -28 122 5 133 69 5 32 1
41 -25 68 -34 34 -83 40 -119 15z"/>
<path d="M17399 4724 c-32 -34 -33 -95 -1 -126 31 -32 92 -31 126 1 35 33 36
92 1 126 -34 35 -93 34 -126 -1z"/>
<path d="M17149 4472 c-63 -56 -27 -156 57 -156 29 0 43 7 65 32 39 43 37 76
-5 118 -42 42 -75 44 -117 6z"/>
<path d="M16891 4214 c-25 -20 -31 -34 -31 -64 0 -84 101 -123 154 -59 35 41
34 83 -3 120 -37 37 -79 38 -120 3z"/>
<path d="M17412 4230 c-28 -12 -55 -71 -46 -105 13 -53 85 -81 136 -54 11 6
26 26 34 45 12 30 12 39 0 69 -21 49 -70 66 -124 45z"/>
<path d="M17135 3955 c-57 -57 -17 -150 66 -150 48 0 77 27 85 76 14 82 -92
133 -151 74z"/>
<path d="M16901 3716 c-27 -15 -50 -52 -51 -79 0 -33 29 -75 61 -86 37 -13 91
6 108 37 42 78 -44 171 -118 128z"/>
<path d="M17420 3723 c-35 -13 -60 -47 -60 -83 0 -69 54 -110 117 -89 33 11
63 51 63 84 0 58 -67 107 -120 88z"/>
<path d="M17129 3441 c-20 -20 -29 -39 -29 -61 0 -45 47 -90 93 -90 47 0 87
40 87 87 0 46 -45 93 -90 93 -22 0 -41 -9 -61 -29z"/>
<path d="M16873 3188 c-45 -49 -36 -115 18 -143 52 -27 99 -11 124 42 30 62
-13 123 -85 123 -25 0 -43 -7 -57 -22z"/>
<path d="M17392 3203 c-18 -7 -42 -57 -42 -87 0 -14 11 -37 24 -53 53 -61 156
-21 156 61 0 49 -38 86 -87 85 -21 0 -44 -3 -51 -6z"/>
<path d="M17145 2946 c-31 -13 -55 -51 -55 -86 0 -11 13 -34 28 -51 58 -64
152 -27 152 60 0 65 -64 104 -125 77z"/>
<path d="M16879 2685 c-38 -20 -52 -67 -35 -110 25 -59 93 -74 143 -31 22 19
28 32 28 66 0 73 -70 111 -136 75z"/>
<path d="M17373 2676 c-22 -19 -28 -32 -28 -66 0 -34 6 -47 28 -66 59 -51 147
-15 147 60 0 48 -8 65 -41 81 -40 21 -74 18 -106 -9z"/>
<path d="M17114 2416 c-41 -35 -39 -89 4 -127 18 -16 41 -29 53 -29 57 0 109
62 94 112 -21 68 -98 91 -151 44z"/>
<path d="M16371 2176 c-55 -31 -65 -91 -22 -138 23 -26 36 -32 66 -31 110 3
118 159 10 178 -17 3 -41 -1 -54 -9z"/>
<path d="M16884 2180 c-47 -19 -68 -85 -43 -132 29 -55 125 -53 154 3 28 53
15 98 -35 124 -32 17 -45 18 -76 5z"/>
<path d="M17395 2181 c-92 -38 -68 -177 30 -174 96 3 126 133 39 169 -38 16
-41 16 -69 5z"/>
<path d="M16115 1918 c-33 -17 -45 -40 -45 -80 0 -79 86 -116 147 -64 22 19
28 32 28 66 0 34 -6 47 -28 66 -30 26 -69 30 -102 12z"/>
<path d="M16599 1901 c-20 -20 -29 -39 -29 -61 0 -45 47 -90 95 -90 48 0 85
36 85 84 0 48 -8 65 -41 81 -43 23 -77 18 -110 -14z"/>
<path d="M17125 1918 c-32 -18 -44 -40 -44 -78 0 -54 38 -90 94 -90 38 0 85
50 85 90 0 64 -79 110 -135 78z"/>
<path d="M15852 1663 c-18 -7 -42 -57 -42 -87 0 -14 11 -37 24 -53 19 -22 32
-28 66 -28 34 0 47 6 66 28 52 61 15 148 -63 146 -21 0 -44 -3 -51 -6z"/>
<path d="M16344 1646 c-41 -35 -39 -89 4 -127 18 -16 41 -29 53 -29 57 0 109
62 94 112 -21 68 -98 91 -151 44z"/>
<path d="M16859 1657 c-44 -34 -48 -106 -8 -143 33 -30 96 -25 125 9 52 61 15
147 -63 147 -21 0 -45 -6 -54 -13z"/>
<path d="M1736 5228 c-55 -4 -155 -19 -223 -33 -381 -77 -697 -252 -964 -533
-269 -283 -438 -643 -509 -1087 -59 -366 -49 -742 26 -1054 150 -615 505
-1071 1030 -1323 447 -214 1009 -245 1504 -82 522 172 891 508 1113 1014 215
492 254 1140 102 1694 -176 643 -593 1100 -1192 1306 -267 92 -573 126 -887
98z m449 -473 c492 -79 865 -394 1043 -880 152 -414 161 -1022 22 -1449 -76
-232 -181 -408 -340 -566 -227 -228 -508 -354 -837 -378 -422 -31 -766 85
-1051 353 -262 247 -409 569 -453 994 -15 141 -6 511 15 661 42 298 126 543
249 724 131 193 397 391 643 479 65 23 226 61 299 70 81 10 328 6 410 -8z"/>
<path d="M19600 3125 l0 -2046 878 4 c919 4 953 6 1175 52 517 107 852 370
1083 849 142 295 212 589 233 978 37 683 -120 1268 -445 1659 -200 241 -443
396 -739 472 -247 63 -342 69 -1317 74 l-868 5 0 -2047z m1896 1527 c208 -39
349 -107 491 -237 143 -129 291 -372 348 -570 67 -234 96 -557 77 -872 -20
-348 -73 -576 -186 -808 -177 -360 -406 -519 -841 -581 -86 -13 -233 -17 -677
-21 l-568 -5 0 1562 0 1562 623 -5 c578 -4 630 -6 733 -25z"/>
<path d="M8445 4100 c-478 -51 -863 -320 -1059 -741 -110 -236 -156 -477 -156
-821 0 -516 130 -882 411 -1155 159 -154 315 -244 533 -307 265 -77 657 -77
924 0 331 96 596 325 746 645 48 103 93 235 84 245 -7 6 -445 64 -488 64 -21
0 -29 -10 -52 -68 -144 -354 -395 -532 -753 -532 -416 0 -730 256 -844 690
-17 65 -25 110 -46 278 l-4 32 1106 0 1106 0 -6 208 c-5 222 -25 364 -71 523
-107 364 -334 646 -651 807 -101 51 -238 97 -352 117 -111 19 -323 26 -428 15z
m358 -426 c261 -58 475 -254 557 -509 27 -87 60 -245 60 -292 l0 -23 -826 0
-825 0 6 48 c3 26 13 81 22 122 67 327 297 573 608 651 94 23 299 25 398 3z"/>
<path d="M24706 4100 c-328 -38 -586 -158 -800 -374 -105 -105 -169 -195 -241
-341 -112 -226 -162 -450 -172 -765 -17 -558 122 -966 427 -1254 276 -259 640
-372 1108 -345 565 34 967 335 1143 858 16 47 27 86 25 88 -6 6 -479 64 -498
61 -13 -2 -30 -29 -53 -81 -57 -132 -113 -217 -204 -308 -69 -69 -103 -94
-171 -127 -132 -65 -190 -77 -370 -77 -206 0 -320 31 -462 124 -176 115 -294
277 -366 501 -29 91 -62 271 -62 339 l0 31 1099 0 1099 0 7 73 c13 147 -19
443 -71 636 -131 499 -516 860 -1009 946 -112 19 -325 27 -429 15z m437 -447
c48 -17 113 -46 143 -64 76 -45 197 -159 245 -230 69 -102 128 -276 147 -436
l8 -73 -823 0 -823 0 0 38 c0 63 36 214 70 296 86 205 252 373 451 453 108 44
171 53 339 50 143 -3 162 -6 243 -34z"/>
<path d="M4303 4018 c8 -13 231 -331 496 -707 264 -375 481 -687 481 -692 0
-4 -241 -351 -535 -769 -294 -419 -535 -763 -535 -766 0 -2 135 -4 300 -4
l300 0 387 580 c213 319 390 579 394 578 4 -2 86 -122 181 -268 96 -146 267
-406 381 -577 l206 -313 307 0 306 0 -18 27 c-9 16 -256 367 -547 781 -291
414 -526 759 -524 766 3 7 231 320 506 695 276 376 501 685 501 687 0 2 -134
4 -297 4 l-298 -1 -250 -351 c-137 -193 -298 -421 -357 -505 -59 -85 -110
-155 -114 -156 -4 -1 -39 50 -78 114 -39 64 -186 292 -326 507 l-255 391 -314
1 -313 0 15 -22z"/>
<path d="M26530 4035 c0 -4 1041 -2747 1115 -2937 7 -16 27 -18 240 -18 212 0
233 2 240 18 6 16 1040 2745 1091 2880 l23 62 -258 0 -257 0 -347 -953 c-324
-890 -464 -1287 -481 -1364 -4 -18 -11 -33 -15 -33 -5 0 -16 30 -26 68 -44
161 -144 451 -461 1338 l-339 944 -262 0 c-145 0 -263 -2 -263 -5z"/>
</g>
</svg>
